<?xml version="1.0" encoding="utf-8"?>
<!-- Generator: Adobe Illustrator 23.0.0, SVG Export Plug-In . SVG Version: 6.00 Build 0)  -->
<svg version="1.1" id="Layer_1" xmlns="http://www.w3.org/2000/svg" xmlns:xlink="http://www.w3.org/1999/xlink" x="0px" y="0px"
	 viewBox="0 0 180 180" style="enable-background:new 0 0 180 180;" xml:space="preserve">
<style type="text/css">
	.st0{fill:#FFFFFF;}
	.st1{fill:#F36F42;}
	.st2{fill:#D0E4F0;}
	.st3{fill:#C84A27;}
	.st4{fill:none;stroke:#40565B;stroke-linecap:round;stroke-linejoin:round;}
	.st5{fill:#FFFFFF;stroke:#40565B;stroke-linecap:round;stroke-linejoin:round;}
	.st6{fill:#F36F42;stroke:#40565B;stroke-linecap:round;stroke-linejoin:round;}
	.st7{fill:#40565B;stroke:#40565B;stroke-linecap:round;stroke-linejoin:round;}
	.st8{fill:none;stroke:#C84A27;stroke-linecap:round;stroke-linejoin:round;}
	.st9{fill:#F36F41;stroke:#C84A27;stroke-linecap:round;stroke-linejoin:round;}
	.st10{fill:none;stroke:#3AA1D6;stroke-linecap:round;stroke-linejoin:round;}
</style>
<title>Signup</title>
<g>
	<circle class="st0" cx="89.9" cy="91.6" r="67.5"/>
	<path class="st1" d="M78.6,69c-0.8-0.8-1.5-1.7-2.2-2.6l-2.2-2.7c3.4-1,6.9-1.7,10.4-2.1c3.5-0.4,7.1,0.1,10.4,1.4
		c0.4,0.2,0.9,0.4,1,0.9c0,0.3,0,0.5-0.2,0.8c-0.8,1.6-1.8,3.1-3.2,4.3c-2,2.2-4.3,4-6.8,5.4c-1.5,0.8-2.4-1.2-3.3-2.1
		C81.2,71.1,79.8,70.1,78.6,69z"/>
	<path class="st0" d="M127.7,37.7c-12.3,6.7-23.6,14.9-33.7,24.6c-3.5,3.4-7.1,7-10.6,11.1c-7.6,8.7-14.3,18.2-20,28.3l1.8,1.8
		l4,4.1c3.7-3.2,7.5-6.2,11.2-9.3L82,97c7.7-6.2,15.2-12.4,22.6-19c3.2-2.9,6.4-5.9,9.6-9c7.7-7.6,14.7-15.8,20.8-24.7
		C132.6,42,130,39.9,127.7,37.7z"/>
	<path class="st1" d="M135.9,33.6c-2.5,1.1-5.3,2.5-8.2,4.1c2.4,2.2,4.9,4.3,7.3,6.6c0.3-0.5,0.6-0.9,0.9-1.3
		C138.1,40,138.1,35.9,135.9,33.6z"/>
	<path class="st2" d="M134.9,44.3c-18,26.4-42.3,43.5-65.7,63.2l5.2,5.4c35.4-19.1,55.2-44.8,65.4-62.8
		C138.5,48,136.8,46.1,134.9,44.3z"/>
	<path class="st3" d="M146.7,29.2c-3.7,1.3-7.3,2.7-10.8,4.3c2.2,2.3,2.2,6.4,0,9.4c-0.3,0.5-0.6,0.9-0.9,1.3c1.9,1.8,3.5,3.7,5,5.8
		c3.5-6,6.4-12.3,8.9-18.8c0.3-0.8-0.1-1.8-0.9-2.1C147.5,29.1,147.1,29.1,146.7,29.2z"/>
	<path class="st4" d="M82.2,62.2c-2.7,0.3-5.4,0.9-8,1.7l9.3,9.5"/>
	<path class="st4" d="M94,62.2c-1.2-0.2-2.3-0.3-3.5-0.4"/>
	<path class="st4" d="M75.3,92.9l12.1,12.3"/>
	<path class="st4" d="M76.5,91.4l10.9,11.1"/>
	<path class="st4" d="M140.1,49.8l-0.2,0.3c-1.6,2.7-3.3,5.6-5.4,8.7c-0.7,1.1-1.4,2.2-2.2,3.3c-1,1.5-2.1,3-3.3,4.5l-1.2,1.6
		l-0.5,0.7c-1,1.3-2,2.5-3.1,3.8c-0.6,0.7-1.2,1.4-1.8,2s-1.2,1.4-1.8,2.1s-1.2,1.4-1.9,2.1c-1.4,1.5-2.8,3-4.3,4.4l0,0
		c-1.3,1.3-2.6,2.6-4,3.9c-1.1,1-2.3,2.1-3.4,3.1l-0.1,0.1c-1.2,1-2.4,2.1-3.7,3.1l0,0l-0.6,0.5l-1.7,1.4l-0.1,0.1l-1,0.8l-0.1,0.1
		c-0.2,0.1-0.3,0.2-0.4,0.3l-0.8,0.7l-1.5,1.2l-2.6,1.9l-1.5,1.1c-1.4,1-2.8,1.9-4.2,2.9l-1.2,0.8l-1.8,1.1l-1.3,0.8
		c-3.1,1.9-6.4,3.8-9.8,5.7l-5.2-5.4l-4-4.1l-1.8-1.8c5.7-10.1,12.4-19.6,20-28.3c3.5-4,7-7.7,10.6-11.1
		c10.1-9.6,21.4-17.9,33.7-24.6"/>
	<path class="st4" d="M76.7,108.2c2-1.3,4-2.7,5.9-4.2"/>
	<path class="st4" d="M73.7,106.7c1.9-1.5,3.7-3.1,5.6-4.6"/>
	<path class="st4" d="M70.8,105.4l5.4-5.3"/>
	<path class="st4" d="M68.3,103.9c1.6-1.9,3.3-3.8,5-5.8"/>
	<path class="st4" d="M65.2,103.4c1.7-2.4,3.4-4.8,5.2-7.2"/>
	<path class="st5" d="M112.2,60.8c-3.4-3.5-9.7-3-13.9,1.1s-4.9,10.4-1.5,13.9c2,2,4.9,2.8,7.7,2.2c4.6-1,8.3-4.4,9.6-9
		C115,66.1,114.2,63,112.2,60.8z"/>
	<path class="st4" d="M140.1,49.8c-2.7-3.3-5.5-6.4-8.6-9.3"/>
	<path class="st6" d="M140,46.2c-2.1-2.4-4.3-4.8-6.7-7"/>
	<path class="st4" d="M140.1,49.8c3.4-5.9,6.3-12.1,8.7-18.5c0.3-0.8-0.1-1.8-1-2.1c-0.3-0.1-0.7-0.1-1,0c-6.6,2.3-13,5.1-19.1,8.4"
		/>
	<path class="st1" d="M108.8,99.3l3.6,3.7c2.3-7.6,2.8-15.7,1.5-23.5c-3.9,4-8.2,8-12.8,12l3.5,3.6L108.8,99.3z"/>
	<path class="st4" d="M108.8,99.3l3.6,3.7c2.3-7.6,2.8-15.7,1.5-23.5c-3.9,4-8.2,8-12.8,12l3.5,3.6"/>
	<path class="st7" d="M101.2,91.4c0,2-0.7,3.9-2,5.4l4.1-3.3L101.2,91.4z"/>
	<path class="st8" d="M72.6,115.9c-2.3,9.6-10.7,15.5-18.9,20.1c-6.9,3.6-14,6.6-21.3,9.1"/>
	<path class="st8" d="M32.2,137.4c-0.8,1.8-1.5,3.7-2.2,5.6"/>
	<path class="st8" d="M60.2,103.3c-10.5,2.3-17.1,12.2-21.8,21.1c-1.5,2.9-2.9,5.8-4.3,8.8"/>
	<path class="st9" d="M58.4,112c-1.4,1.4-14.6,19.3-14.6,19.3s18.2-12.7,19.7-14.1c1.5-1.4,1.6-3.7,0.2-5.2
		c-1.4-1.5-3.7-1.6-5.2-0.2C58.5,111.9,58.5,112,58.4,112L58.4,112z"/>
	<line class="st10" x1="94.2" y1="43.1" x2="100.7" y2="36.5"/>
	<line class="st4" x1="82.3" y1="65.4" x2="88.3" y2="59.4"/>
	<line class="st10" x1="140.9" y1="74.8" x2="159.6" y2="56.1"/>
	<line class="st10" x1="140.9" y1="101.7" x2="145.2" y2="97.4"/>
	<line class="st10" x1="165.2" y1="91" x2="136.6" y2="119.6"/>
	<line class="st10" x1="81.5" y1="40.4" x2="62" y2="59.8"/>
	<line class="st10" x1="66.6" y1="60.8" x2="60.3" y2="67.2"/>
	<line class="st10" x1="41.5" y1="74.8" x2="18.8" y2="97.5"/>
	<line class="st10" x1="58.5" y1="77.6" x2="35.8" y2="100.3"/>
	<line class="st10" x1="49.6" y1="80.4" x2="44" y2="86.1"/>
	<line class="st10" x1="68" y1="80.1" x2="64.4" y2="83.6"/>
	<line class="st10" x1="42.8" y1="104.2" x2="25.4" y2="121.6"/>
	<line class="st10" x1="82" y1="21.6" x2="53.6" y2="50"/>
	<line class="st10" x1="122.6" y1="110" x2="110.7" y2="121.9"/>
	<line class="st10" x1="46.8" y1="61.5" x2="37.1" y2="71.2"/>
	<line class="st4" x1="108.1" y1="93.4" x2="103.8" y2="97.7"/>
	<line class="st4" x1="109.4" y1="96.1" x2="98.8" y2="106.7"/>
	<line class="st10" x1="145.1" y1="78.6" x2="132.3" y2="91.4"/>
	<line class="st10" x1="131.8" y1="122.8" x2="123.5" y2="131"/>
	<line class="st10" x1="134.4" y1="135.4" x2="110.8" y2="158.9"/>
	<line class="st10" x1="103.3" y1="151.1" x2="84.1" y2="170.4"/>
	<line class="st10" x1="81.7" y1="142.2" x2="71.8" y2="152.1"/>
	<line class="st10" x1="114.1" y1="124.1" x2="94.9" y2="143.2"/>
	<line class="st10" x1="74.7" y1="144" x2="54.2" y2="164.5"/>
	<line class="st10" x1="93.7" y1="118.5" x2="82.8" y2="129.3"/>
	<path class="st0" d="M112,67.4c-1.4-1-3.1-1.3-4.8-0.8c-1.2,0.5-2.3,1.1-3.3,1.8c-2.1,1.3-4.6,1.5-6.8,0.6c0.4-2,1.4-3.9,2.9-5.3
		c3.3-3.2,8.1-3.8,10.6-1.3C111.8,63.8,112.3,65.6,112,67.4z"/>
	<path class="st2" d="M112,67.4c-0.3,2.2-1.4,4.1-3,5.6c-3.3,3.3-8.1,3.8-10.6,1.3c-1.3-1.4-1.8-3.4-1.3-5.3
		c2.3,0.9,4.8,0.7,6.8-0.6c1-0.7,2.1-1.3,3.3-1.8C108.9,66.1,110.6,66.4,112,67.4z"/>
	<path class="st4" d="M110.6,62.4c-2.5-2.6-7.2-2-10.6,1.3c-1.5,1.4-2.5,3.3-2.9,5.3c-0.4,1.9,0.1,3.8,1.4,5.3
		c2.5,2.6,7.2,2,10.6-1.3c1.6-1.5,2.6-3.5,3-5.6C112.3,65.6,111.8,63.8,110.6,62.4z"/>
</g>
</svg>
